<?xml version="1.0" encoding="utf-8"?>
<!-- Generator: Adobe Illustrator 24.3.0, SVG Export Plug-In . SVG Version: 6.00 Build 0)  -->
<svg version="1.1" id="Layer_1" xmlns="http://www.w3.org/2000/svg" xmlns:xlink="http://www.w3.org/1999/xlink" x="0px" y="0px"
	 viewBox="0 0 1960 3281.7" enable-background="new 0 0 1960 3281.7" xml:space="preserve">
<rect fill="#FFA400" width="1960" height="790.6"/>
<rect y="1581.2" fill="#808080" width="1960" height="790.6"/>
<g>
	<g>
		<path fill="#FF4200" d="M501.8,128.2v102h16.8v25.9H450v-25.9h17.8v-102H450v-25.9h68.6v25.9H501.8z M577.9,230.2h25v25.9H545
			v-17.3l-37.9-60.2l35.3-57.8v-18.5H599v25.9h-25.4l-29.8,47.5L577.9,230.2z"/>
		<path fill="#FF4200" d="M694,172.1h-38.4v60h19v24H610v-24h15.1v-60H610v-24h23.8l12.2,12.2l12.2-12.2H694V172.1z"/>
		<path fill="#FF4200" d="M795.1,232.1h13v24h-21.6l-12.2-12.2L762,256.1h-40.3l-22.3-22.3v-20.6l22.3-22.1h44.2v-19h-53.5v-24h57.4
			l25.4,25.4V232.1z M728.6,234.8h37.2v-26.2h-37.2V234.8z"/>
		<path fill="#FF4200" d="M896.4,126.3h-31v21.8H894v24h-28.6v60h18.7v24h-64.6v-24h15.4v-60h-19v-24h19v-20.4l25.4-25.4h36V126.3z"
			/>
		<path fill="#FF4200" d="M987.8,172.1h-35.3v60h35.3v24h-40.3L922,230.7v-58.6h-17.8v-24H922v-27.6h30.5v27.6h35.3V172.1z"/>
		<path fill="#FF4200" d="M1183.2,172.1h-15.4l-21.4,84h-39.8l-15.8-82.6l-16.1,82.6h-39.8l-21.4-84h-15.4v-24h57.1v24h-11.8
			l14.9,65.8l16.3-89.8h31.9l18,90l14.9-66h-12v-24h55.7V172.1z"/>
		<path fill="#FF4200" d="M1290.4,210.3H1224v21.8h59.5v24h-63.4l-25.2-25.4v-57.1l25.2-25.4h44.9l25.4,25.4V210.3z M1261.6,170.9
			H1224v23h37.7V170.9z"/>
		<path fill="#FF4200" d="M1388.1,172.1h-38.4v60h19v24h-64.6v-24h15.1v-60h-15.1v-24h23.8l12.2,12.2l12.2-12.2h35.8V172.1z"/>
		<path fill="#FF4200" d="M1440,232.1h14.2v24h-59.8v-24h15.1V126.3h-15.1v-24h45.6V232.1z M1502.1,232.1h21.6v24h-48.2v-10.3
			l-29.5-48.2l23.5-33.4v-16.1h48.2v24h-22.3l-16.6,23L1502.1,232.1z"/>
		<path fill="#FF4200" d="M228,339.1h-3.4v-22.6l7.7-20.6h3.1l-7.4,20.6V339.1z M247.2,339.1v-22.6l7.7-20.6h3.1l-7.4,20.6v22.6
			H247.2z"/>
		<path fill="#FF4200" d="M312.4,307.5v76.8h68.8l-2.8,2.9h-66v68.4H340v2.9h-56.2v-2.9h25.2V307.5h-25.2v-2.9h94.6l2.8,2.9H312.4z
			 M396.2,322.6v46.6l-3.4,3.4v-53.4L396.2,322.6z"/>
		<path fill="#FF4200" d="M425,374.7l3.4-3.4v70.8l-3.4-3.4V374.7z M489.8,355l2.9,2.9h-50.9l2.9-2.9H489.8z M444.7,458.4l-2.9-2.9
			h50.9l-2.9,2.9H444.7z M509.7,374.7v64.1l-3.4,3.3v-70.7L509.7,374.7z"/>
		<path fill="#FF4200" d="M579.3,357.9h-25.5l31,100.6h-3.4l-31.3-100.6h-17.7V355h46.8L579.3,357.9z M585.8,458.4L613.4,355h3.4
			l-27.6,103.4H585.8z M617.7,355h3.4l27.6,103.4h-3.4L617.7,355z M702,357.9h-17.7L653,458.4h-3.4l31-100.6h-25.5V355H702
			L702,357.9z"/>
		<path fill="#FF4200" d="M809,404.7h-80.9v37.4l-3.4-3.4v-64.1l3.4-3.4v30.5h77.5v-30.5l3.4,3.4V404.7z M789.3,355l2.9,2.9h-50.6
			l2.9-2.9H789.3z M802.1,458.4h-57.6l-2.9-2.9h60.5V458.4z"/>
		<path fill="#FF4200" d="M857.5,357.9v97.7h26.4v2.9h-51.4v-2.9h21.6v-97.7h-21.6V355h22.1L857.5,357.9z M905,355v2.9h-47.5
			l2.9-2.9H905z"/>
		<path fill="#FF4200" d="M987.1,421.9h3.4V448l-3.4-3.3V421.9z M990,323.3l3.4-3.4v50.6l-3.4-3.4V323.3z M1001,458.4l-2.9-2.9h64.6
			l-2.9,2.9H1001z M1001.5,378.7h62.6l2.9,2.9h-62.6L1001.5,378.7z M1061.7,304.6l2.9,2.9h-58.8l2.9-2.9H1061.7z M1075.6,341.1h-3.4
			v-25.9l3.4,3.4V341.1z M1078.5,393.1v46.6l-3.4,3.4v-53.3L1078.5,393.1z"/>
		<path fill="#FF4200" d="M1164.2,357.9h-37.4V445l-3.4-3.4v-83.8h-18.5V355h18.5v-23.5h3.4V355h37.4V357.9z M1164.2,458.4h-24
			l-2.9-2.9h26.9V458.4z"/>
		<path fill="#FF4200" d="M1188.2,417.1l3.4-3.4v31.4l-3.4-3.4V417.1z M1269.6,455.5h21.6v2.9h-22.1l-2.9-2.9v-52.1h-64.3l2.9-2.9
			h61.4v-29.2l3.4,3.3V455.5z M1204.8,458.4l-2.9-2.9h64.3l-2.9,2.9H1204.8z M1203.3,355h46.3l2.9,2.9h-49.2V355z"/>
		<path fill="#FF4200" d="M1364.8,357.9h-37.4V445l-3.4-3.4v-83.8h-18.5V355h18.5v-23.5h3.4V355h37.4V357.9z M1364.8,458.4h-24
			l-2.9-2.9h26.9V458.4z"/>
		<path fill="#FF4200" d="M1410.2,455.5h21.6v2.9h-46.6v-2.9h21.6v-97.7h-21.6V355h25V455.5z M1410.2,320.4v15.1h-3.4v-15.1H1410.2z
			"/>
		<path fill="#FF4200" d="M1460.6,374.7l3.4-3.4v70.8l-3.4-3.4V374.7z M1525.4,355l2.9,2.9h-50.9l2.9-2.9H1525.4z M1480.3,458.4
			l-2.9-2.9h50.9l-2.9,2.9H1480.3z M1545.3,374.7v64.1l-3.4,3.3v-70.7L1545.3,374.7z"/>
		<path fill="#FF4200" d="M1596.2,355l2.9,2.9v97.7h21.6v2.9h-46.6v-2.9h21.6v-97.7h-21.6V355H1596.2z M1601.9,355h52.1l2.9,2.9
			h-57.8L1601.9,355z M1673.7,455.5h21.6v2.9h-46.6v-2.9h21.6v-84.2l3.4,3.4V455.5z"/>
		<path fill="#FF4200" d="M1717.9,296.2h3.4v22.6l-7.7,20.6h-3.1l7.4-20.6V296.2z M1743.8,296.2v22.6l-7.7,20.6h-3.1l7.4-20.6v-22.6
			H1743.8z"/>
		<path fill="#808080" d="M153.5,509.8v148.1h74.4l-2.8,2.9H124.9v-2.9h25.2V509.8h-25.2v-2.9h99.8l2.9,2.9H153.5z M242.7,524.9
			v117.8l-3.4,3.4V521.5L242.7,524.9z"/>
		<path fill="#808080" d="M296.5,644.4l-3.4-3.4v-80.9h-21.6v-2.9h25V644.4z M312.8,660.7l-2.9-2.9h57.8l-2.9,2.9H312.8z
			 M318.6,522.7v15.1h-3.4v-15.1H318.6z M349.1,522.7v15.1h-3.4v-15.1H349.1z M371.1,657.8h21.6v2.9h-22.1l-2.9-2.9v-97.7h-21.6
			v-2.9h25V657.8z"/>
		<path fill="#808080" d="M415.5,574.1l3.4-3.4v30.4l-3.4-3.3V574.1z M416.5,660.7v-2.9h63.8l-2.9,2.9H416.5z M424.6,606.7h57.7
			l2.9,2.9h-57.6L424.6,606.7z M487.5,557.3v2.9h-58.1l2.9-2.9H487.5z M494.3,618.7v25.2l-3.4,3.4v-31.9L494.3,618.7z"/>
		<path fill="#808080" d="M523.8,574.1l3.4-3.4v30.4l-3.4-3.3V574.1z M524.7,660.7v-2.9h63.8l-2.9,2.9H524.7z M532.8,606.7h57.7
			l2.9,2.9h-57.6L532.8,606.7z M595.8,557.3v2.9h-58.1l2.9-2.9H595.8z M602.5,618.7v25.2l-3.4,3.4v-31.9L602.5,618.7z"/>
		<path fill="#808080" d="M719.9,607H639v37.4l-3.4-3.4V577l3.4-3.4v30.5h77.5v-30.5l3.4,3.4V607z M700.2,557.3l2.9,2.9h-50.6
			l2.9-2.9H700.2z M712.9,660.7h-57.6l-2.9-2.9h60.5V660.7z"/>
		<path fill="#808080" d="M768.3,657.8h21.6v2.9h-46.6v-2.9H765V509.8h-21.6v-2.9h25V657.8z"/>
		<path fill="#808080" d="M818.7,577l3.4-3.4v70.8l-3.4-3.4V577z M897.2,557.3l2.9,2.9h-64.6l2.9-2.9H897.2z M838.4,660.7l-2.9-2.9
			h64.6l-2.9,2.9H838.4z M903.4,657.8H925v2.9H903l-2.9-2.9V509.8h-21.6v-2.9h25V657.8z"/>
		<path fill="#808080" d="M953.8,577l3.4-3.4v70.8l-3.4-3.4V577z M1018.6,557.3l2.9,2.9h-50.9l2.9-2.9H1018.6z M973.5,660.7
			l-2.9-2.9h50.9l-2.9,2.9H973.5z M1038.6,577V641l-3.4,3.3v-70.7L1038.6,577z"/>
		<path fill="#808080" d="M1092.3,560.2v97.7h26.4v2.9h-51.4v-2.9h21.6v-97.7h-21.6v-2.9h22.1L1092.3,560.2z M1139.8,557.3v2.9
			h-47.5l2.9-2.9H1139.8z"/>
		<path fill="#808080" d="M1176.6,521.3l3.4-3.4v39.4h33.8v2.9h-33.8v97.7h26.4v2.9H1155v-2.9h21.6v-97.7h-20.9v-2.9h20.9V521.3z
			 M1216.2,506.9v2.9h-28.1l2.9-2.9H1216.2z"/>
		<path fill="#808080" d="M1336.2,481.4l-32.2,31.7v141.3l32.2,31.7v2.2h-2.6l-32.9-32.6V511.9l32.9-32.6h2.6V481.4z"/>
		<path fill="#808080" d="M1352.7,660.7v-2.9h31.2V509.8H1352v-2.9h35.3v151h31.2v2.9H1352.7z"/>
		<path fill="#808080" d="M1443.9,524.9l3.4-3.4v55l-3.4-3.4V524.9z M1443.9,625h3.4v24.7l-3.4-3.4V625z M1458.3,660.7l-2.9-2.9
			h57.8l-2.9,2.9H1458.3z M1510.4,506.9l2.9,2.9H1459l2.9-2.9H1510.4z M1528.4,524.9v117.8l-3.4,3.4v-53.3h-61.4l-2.9-2.9h64.3
			v-68.4L1528.4,524.9z"/>
		<path fill="#808080" d="M1652.9,506.9v2.9h-86.9v33.6h-3.4v-36.5H1652.9z M1584.5,660.7l68.4-150.5v8.6l-64.8,141.8H1584.5z"/>
		<path fill="#808080" d="M1687.7,524.9l3.4-3.4v124.4l-3.4-3.4V524.9z M1755.7,506.9l2.9,2.9h-55.9l2.8-2.9H1755.7z M1705.7,660.7
			l-2.8-2.9h55.6l-2.9,2.9H1705.7z M1773.7,524.9v117.8l-3.4,3.4V521.5L1773.7,524.9z"/>
		<path fill="#808080" d="M1802.2,479.3l32.9,32.6v143.8l-32.9,32.6h-2.6v-2.2l32.2-31.7V513.1l-32.2-31.7v-2.2L1802.2,479.3z"/>
	</g>
</g>
<rect y="790.6" fill="#FF4200" width="980" height="790.6"/>
<rect x="980" y="790.6" fill="#FF5FC6" width="980" height="790.6"/>
<g>
	<g>
		<path d="M273.9,1344.1l43,43.4v43l-55.9,55.9h-206v-68.8h21.5v-138H55.1v-68.8h201.7l55.9,55.9v38.7L273.9,1344.1z M222.3,1279.6
			h-55.5v32.7h55.5V1279.6z M226.6,1417.6v-37h-59.8v37H226.6z"/>
		<path d="M433.9,1423.6h17.2v62.8h-117v-62.8h17.2v-150.1h-17.2v-62.8h99.8V1423.6z"/>
		<path d="M612.3,1486.4h-92.4l-51.6-51.6v-95l51.6-51.6h92.4l51.6,51.6v95L612.3,1486.4z M483.3,1271v-75.7h70.5v75.7H483.3z
			 M581.4,1350.9h-30.5v72.7h30.5V1350.9z M578.8,1271v-75.7h70.9v75.7H578.8z"/>
		<path d="M783,1423.6h12.9v62.8H683.3v-62.8h17.2v-150.1h-17.2v-62.8H783V1423.6z M896.6,1423.6h28.4v62.8h-94.2l-43-102.8
			l45.6-95.5h83v62.8h-30.5l-11.2,23.6L896.6,1423.6z"/>
	</g>
	<g>
		<path d="M273.9,1034.2l43,43.4v43l-55.9,55.9h-206v-68.8h21.5v-138H55.1v-68.8h201.7l55.9,55.9v38.7L273.9,1034.2z M222.3,969.7
			h-55.5v32.7h55.5V969.7z M226.6,1107.7v-37h-59.8v37H226.6z"/>
		<path d="M433.9,1113.7h17.2v62.8h-117v-62.8h17.2V963.6h-17.2v-62.8h99.8V1113.7z"/>
		<path d="M612.3,1176.5h-92.4l-51.6-51.6v-95l51.6-51.6h92.4l51.6,51.6v95L612.3,1176.5z M483.3,961.1v-75.7h70.5v75.7H483.3z
			 M581.4,1041h-30.5v72.7h30.5V1041z M578.8,961.1v-75.7h70.9v75.7H578.8z"/>
		<path d="M783,1113.7h12.9v62.8H683.3v-62.8h17.2V963.6h-17.2v-62.8H783V1113.7z M896.6,1113.7h28.4v62.8h-94.2l-43-102.8
			l45.6-95.5h83v62.8h-30.5l-11.2,23.6L896.6,1113.7z"/>
	</g>
</g>
<g>
	<g>
		<path fill="#FF4200" d="M565.9,1751.9h-25.8l-40.7,152.9h25.8l-13.3,48.9H406.4l13.3-48.9h23.1l46.9-173.6l-110.3,222.5h-83.7
			l9-219.4l-46.1,170.5h23.1l-13.3,48.9H162.8l13.3-48.9h25.8l40.7-152.9h-25.8l13.3-48.9h128.6L345,1920.8L447.1,1703h132.2
			L565.9,1751.9z"/>
		<path fill="#FF4200" d="M580.8,1776.5h80.2l-35.6,132.2h21.5l-12.1,45H533.1l12.1-45h21.9l23.5-87.2h-21.9L580.8,1776.5z
			 M619.5,1699.9h60.6l-14.5,52.8H605L619.5,1699.9z"/>
		<path fill="#FF4200" d="M834.6,1908.7h21.9l-12.1,45h-39.1l-15.6-21.1l-26.6,21.1h-59.8l-35.6-48.5l23.5-86.8l53.2-41.8h52
			l11.7,15.6l11.7-44.2h-21.9l12.1-45h79.8L834.6,1908.7z M776.7,1908.7l23.5-87.2h-51.6l-23.9,87.2H776.7z"/>
		<path fill="#FF4200" d="M1077.8,1825l-22.3,83.7h21.5l-12.1,45h-95l12.1-45h15.2l23.1-87.2h-46.1l-23.5,87.2h14.9l-11.7,45h-95.4
			l12.1-45h21.9l23.5-87.2H894l12.1-45h39.5l15.2,20.7l26.6-20.7h54.7L1077.8,1825z"/>
		<path fill="#FF4200" d="M1125.5,1776.5h80.2l-35.6,132.2h21.5l-12.1,45h-101.7l12.1-45h21.9l23.5-87.2h-21.9L1125.5,1776.5z
			 M1164.2,1699.9h60.6l-14.5,52.8h-60.6L1164.2,1699.9z"/>
		<path fill="#FF4200" d="M1400.3,1776.5h17.2l-53.6,199.8l-63.7,50h-100.5l12.1-45h92.3l11.7-43.8l-20.3,16h-45l-36-48.5l23.5-86.8
			l53.6-41.8h66.5l15.6,20.7L1400.3,1776.5z M1323.7,1908.7l23.5-87.2h-51.6l-23.5,87.2H1323.7z"/>
		<path fill="#FF4200" d="M1615.4,1825l-22.7,83.7h21.9l-12.1,45h-95l12.1-45h15.2l23.5-87.2h-46.9l-23.5,87.2h15.2l-12.1,45h-95
			l12.1-45h21.9l43-160.7h-21.9l12.1-45h79.8l-23.9,89.5l20.3-16h40.3L1615.4,1825z"/>
		<path fill="#FF4200" d="M1785.1,1821.5H1728l-23.5,87.2h57.1l-12.1,45H1683l-36-48.5l22.7-83.7h-28.5l12.1-45h28.5l12.5-46.5h57.9
			l-12.5,46.5h57.5L1785.1,1821.5z"/>
		<path fill="#FF4200" d="M555,2057.9h-60.2l7-26.2h-50.4l-13.3,50H521l-12.5,46.5h-82.9l-13.3,50.8h50l7-26.2H530l-20.7,77.8H309
			l13.3-48.9h25.8l40.7-152.9H363l13.3-48.9h199.4L555,2057.9z"/>
		<path fill="#FF4200" d="M736.4,2098.6l-38.7,44.6l16.8,42.6h23.1l-12.1,45H641l11.7-45h4.7l-8.6-28.2l-22.7,28.2h6.3l-12.1,45
			h-88.8l12.1-45h21.9l41.1-44.6l-15.2-42.6H571l12.1-45h82.5l-11.7,45H650l6.6,25l19.6-25h-5.5l12.1-45h86.4l-12.1,45H736.4z"/>
		<path fill="#FF4200" d="M928,2053.6l35.6,48.5l-23.5,86.8l-53.2,41.8h-52l-11.7-16l-11.7,43.8h27l-12.1,45H719.6l12.1-45h21.9
			l43-159.9h-21.9l12.1-45h39.1l15.6,20.7l26.6-20.7H928z M883,2185.8l23.5-87.2h-52l-23.5,87.2H883z"/>
		<path fill="#FF4200" d="M1127.4,2098.6h-59.8l-23.5,87.2h26.6l-11.7,45H951.8l12.1-45h21.9l23.5-87.2h-21.9l12.1-45h39.5
			l15.2,20.7l26.6-20.7h58.7L1127.4,2098.6z"/>
		<path fill="#FF4200" d="M1254.1,2157.6h-68.4l-7.4,28.2h92.7l-12.1,45h-99.7l-35.6-48.5l23.5-86.8l53.2-41.8h69.2l35.2,48.5
			l-5.5,20.3L1254.1,2157.6z M1202.1,2095.8l-8.6,32.8h49.3l8.6-32.8H1202.1z"/>
		<path fill="#FF4200" d="M1297.9,2230.7l11.7-45h84.1l7-27.4h-50.4l-27.4-37.1l9-32.5l45-35.2h99.3l-12.1,45h-77l-7,26.6h50
			l27.4,37.5l-9,32.8l-44.6,35.2H1297.9z"/>
		<path fill="#FF4200" d="M1465.2,2230.7l11.7-45h84.1l7-27.4h-50.4l-27.4-37.1l9-32.5l45-35.2h99.3l-12.1,45h-77l-7,26.6h50
			l27.4,37.5l-9,32.8l-44.6,35.2H1465.2z"/>
	</g>
</g>
<g>
	<path d="M1210.3,888h-14v57.6h14v15.7h-43.6v-15.7h12.6V881l-23.8,80.2h-24.9l-23.8-79.6v64h12.8v15.7h-43.6v-15.7h13.6V888h-13.6
		v-15.7h44l23,81.1l22.8-81.1h44.3V888z"/>
	<path d="M1287.7,935h16.4v26.2h-77.6v-15.7h13.8V888h-13.8v-15.7h77.4v26.2h-16.4V888H1259v21.7h35.5v13.6H1259v22.3h28.7V935z"/>
	<path d="M1404.1,945.5h19.1v15.7h-44.9v-15.7h2.8l-21.3-30.4h31.3V888h-37v57.6h13.2v15.7h-46.4v-15.7h13.8V888h-13.8v-15.7h73
		l16.6,16.6V908l-19.8,19.8h-0.2L1404.1,945.5z"/>
	<path d="M1483.2,935h16.4v26.2h-67v-28.9l57.9-44.9H1450v11.1h-16.6v-26.2h64.9v29.2l-56.8,44.5h41.7V935z"/>
	<path d="M1591.9,915l11.3,10.9v20.8l-15.3,14.5h-73v-15.7h13.8V888h-13.8v-15.7h71.5l15.3,14.3v18.9L1591.9,915z M1583,886.7h-35.5
		v22.5h35.5V886.7z M1584.5,946.9v-24.7h-37v24.7H1584.5z"/>
	<path d="M1685.9,961.2h-44l-17.7-17.7v-53.4l17.7-17.7h44l17.7,17.7v53.4L1685.9,961.2z M1684.4,888h-40.8v57.6h40.8V888z"/>
	<path d="M1869.9,888H1858l-17.9,73.2h-30.4l-16-81.1l-16,81.1h-30.4l-17.9-73.2h-12.1v-15.7h46V888h-13.6l13.2,64.7l15.5-80.4h31.7
		l15.5,80.4l13.2-64.7h-13.4v-15.7h44.5V888z"/>
	<path fill="#FFA400" d="M1072,1108V1029l23.8-41.9h27.6l-35.1,55.3h39.4v65.7H1072z M1138.8,1108V1029l23.8-41.9h27.6l-35.1,55.3
		h39.4v65.7H1138.8z"/>
	<path fill="#FFA400" d="M1337.9,1004.3h-15.3V1108h-36.4l-41.7-111.5v94.4h15.7v17.2h-50.6v-17.2h15.5v-86.6h-15.5v-17.2h52.1
		l41.3,110.4v-93.2h-15.7v-17.2h50.6V1004.3z"/>
	<path fill="#FFA400" d="M1430,1108h-53.2l-21.1-21.1v-78.7l21.1-21.1h53.2l21.1,21.1v78.7L1430,1108z M1429.1,1005h-51.5v85.1h51.5
		V1005z"/>
	<path fill="#FFA400" d="M1470.6,1108v-17.9h15.5V1005h-15.5v-17.9h52.8v17.9h-15.3v85.1h15.3v17.9H1470.6z"/>
	<path fill="#FFA400" d="M1599.5,1073.5h20.6v34.5h-80.8V1076l67-71H1560v16.6h-20.6v-34.5h79.1v32.5l-65.9,70.6h46.8V1073.5z"/>
	<path fill="#FFA400" d="M1708.3,1073.5h20.6v34.5h-93.6v-17.2h15.5v-86.6h-15.5v-17.2h93.2v34.5H1708V1005h-35.9v34h44.9v16.4
		h-44.9v34.7h36.2V1073.5z"/>
	<path fill="#FFA400" d="M1801.2,987.1v79.1l-23.8,41.9h-27.6l35.1-55.3h-39.4v-65.7H1801.2z M1868,987.1v79.1l-24,41.9h-27.4
		l35.1-55.3h-39.4v-65.7H1868z"/>
	<path fill="#FFA400" d="M1154.3,1168.5h-20.6v-16.6h-32.8v35.5h43.8v17.2h-43.8v33.2h17.2v17.2h-54.7v-17.2h15.5v-86.6h-15.5v-17.2
		h91V1168.5z"/>
	<path fill="#FFA400" d="M1240,1220.3h20.6v34.5h-93.6v-17.2h15.5v-86.6h-15.5v-17.2h93.2v34.5h-20.6v-16.6h-35.9v34h44.9v16.4
		h-44.9v34.7h36.2V1220.3z"/>
	<path fill="#FFA400" d="M1365.5,1168.5h-21.3v-17.5h-42.1v34h44.9l19.8,19.8v29.6l-20.6,20.6H1299l-20.4-20.6v-14.2h21.3v17.7h44.7
		v-35.3h-44.9L1280,1182v-27.6l20.6-20.6h44.3l20.6,20.6V1168.5z"/>
	<path fill="#FFA400" d="M1482.6,1133.9v36.6h-20.6v-18.7h-20v85.1h15.5v17.9h-52.8V1237h15.3v-85.1h-19.8v18.7h-20.8v-36.6H1482.6z
		"/>
	<path fill="#FFA400" d="M1497.6,1169.4v-15.7l19.8-19.8h40.4l19.8,19.8v31.7l-21.1,21.3h-37.4v30.2h60v17.9H1497v-44.2l21.9-21.9
		h37.4v-37h-36.6v17.5H1497.6z"/>
	<path fill="#FFA400" d="M1667.2,1254.9h-45.3l-21.3-21.3v-78.5l21.1-21.1h45.5l21.1,21.1v78.7L1667.2,1254.9z M1666.6,1151.8h-44.3
		v85.1h44.3V1151.8z"/>
	<path fill="#FFA400" d="M1712.3,1169.4v-15.7l19.8-19.8h40.4l19.8,19.8v31.7l-21.1,21.3h-37.4v30.2h60v17.9h-82.1v-44.2l21.9-21.9
		h37.4v-37h-36.6v17.5H1712.3z"/>
	<path fill="#FFA400" d="M1809.5,1254.9V1237h24.5v-85.1h-23.6v-17.9h45.7v103h24.5v17.9H1809.5z"/>
	<path d="M1440.6,1401.7H1350l-17.7-17.9v-85.1l17.7-17.9h89.4l19.1,17.9v85.1L1440.6,1401.7z M1446.8,1291.1h-102.8v100.2h102.8
		V1291.1z M1413.6,1323.6h-25.3v10h17.7l10.8,10.6v14.2l-10,9.8h-20.9l-10-9.8v-7h12.1v7.2h17.2v-15.3h-27.4V1314h35.9V1323.6z"/>
	<path d="M1589.1,1280.8l19.1,17.9v85.1l-17.9,17.9h-90.6l-17.7-17.9v-85.1l17.7-17.9H1589.1z M1596.4,1391.3v-100.2h-102.8v100.2
		H1596.4z M1537.6,1323.6v9.1h-10.8V1314h37.7v21.3l-19.1,32.8h-12.3l26.8-44.5H1537.6z"/>
	<path d="M1403.7,1451.6l50-0.9l16.4-47.6l16.2,47.6l50.2,0.9l-40,30l14.5,48.3l-40.9-29.1l-41.1,29.1l14.7-48.3L1403.7,1451.6z"/>
</g>
<rect x="0" y="2371.8" fill="#42C129" width="1235.2" height="909.9"/>
<g>
	<g>
		<path fill="#FFFFFF" d="M212.1,2692.2v-27.7H236V2533h-23.9v-27.7h81.6v27.7h-23.6v131.5h23.6v27.7H212.1z"/>
		<path fill="#FFFFFF" d="M403.3,2586.7h-43.1v81h43.1v24.5H359l-29.4-29.4v-76.1h-21.9v-24.5h21.9v-32.7h30.6v32.7h43.1V2586.7z"/>
		<path fill="#FFFFFF" d="M534.2,2667.7h17.2v24.5h-25.4l-13.7-13.7l-13.7,13.7h-50.4l-26.8-26.8v-24.5l26.8-26.8h56.3v-27.4h-67.1
			v-24.5h67.3l29.4,29.4V2667.7z M451.2,2669.8h53.4v-36.4h-53.4V2669.8z"/>
		<path fill="#FFFFFF" d="M614.4,2667.7h20.7v24.5h-72.3v-24.5h21v-137.9h-21v-24.5h51.6V2667.7z"/>
		<path fill="#FFFFFF" d="M699.2,2667.7h20.7v24.5h-72.3v-24.5h21v-81h-21v-24.5h51.6V2667.7z M699.2,2511.2v30.3h-34.4v-30.3H699.2
			z"/>
		<path fill="#FFFFFF" d="M847.3,2667.7h17.2v24.5h-25.4l-13.7-13.7l-13.7,13.7h-50.4l-26.8-26.8v-24.5l26.8-26.8h56.3v-27.4h-67.1
			v-24.5h67.3l29.4,29.4V2667.7z M764.2,2669.8h53.4v-36.4h-53.4V2669.8z"/>
		<path fill="#FFFFFF" d="M1009.1,2667.7h20.7v24.5h-68.2v-24.5h16.9v-81h-51v81h16.9v24.5h-68.5v-24.5h21v-81h-21v-24.5h28.9l14,14
			l13.7-14h47.2l29.4,29.4V2667.7z"/>
		<path fill="#FFFFFF" d="M293.6,2744.6v49.9l-32.7,32.7h-69.7v45.2h26.5v26.5h-84.5v-26.5h23.9v-133.8h-23.9v-26.5h127.7
			L293.6,2744.6z M259.5,2799.7v-60.1h-68.2v60.1H259.5z"/>
		<path fill="#FFFFFF" d="M406.4,2793.3H358v81h25.7v24.5h-77.3v-24.5h21v-81h-21v-24.5h28.9l14,14l13.7-14h43.4V2793.3z"/>
		<path fill="#FFFFFF" d="M537.9,2842h-83.7v32.4h75.2v24.5h-75.5l-29.4-29.4v-71.1l29.4-29.4h54.5l29.4,29.4V2842z M508.4,2792.4
			h-54.2v31.5h54.2V2792.4z"/>
		<path fill="#FFFFFF" d="M751.6,2874.3h21v24.5H704v-24.5H721v-81h-41.4v81h16.9v24.5h-64.1v-24.5h16.9v-81h-41.4v81h16.9v24.5
			h-68.5v-24.5h21v-81h-21v-24.5h28.9l14,14l13.7-14h37.9l13.7,14l13.7-14h44l29.4,29.4V2874.3z"/>
		<path fill="#FFFFFF" d="M835.2,2874.3h20.7v24.5h-72.3v-24.5h21v-81h-21v-24.5h51.6V2874.3z M835.2,2717.8v30.3h-34.4v-30.3H835.2
			z"/>
		<path fill="#FFFFFF" d="M989.5,2842h-83.7v32.4H981v24.5h-75.5l-29.4-29.4v-71.1l29.4-29.4H960l29.4,29.4V2842z M960,2792.4h-54.2
			v31.5H960V2792.4z"/>
		<path fill="#FFFFFF" d="M1107.8,2793.3h-48.4v81h25.7v24.5h-77.3v-24.5h21v-81h-21v-24.5h28.9l14,14l13.7-14h43.4V2793.3z"/>
		<path fill="#FFFFFF" d="M288,3046.2h31.8v59.2H178.7v-26.5h23.9v-133.8h-23.9v-26.5h81.6v26.5h-23.6v132.6H288V3046.2z"/>
		<path fill="#FFFFFF" d="M452.5,3048.6h-83.7v32.4H444v24.5h-75.5l-29.4-29.4v-71.1l29.4-29.4H423l29.4,29.4V3048.6z M423,2999
			h-54.2v31.5H423V2999z"/>
		<path fill="#FFFFFF" d="M585.7,3080.9h17.2v24.5h-25.4l-13.7-13.7l-13.7,13.7h-50.4l-26.8-26.8v-24.5l26.8-26.8H556v-27.4h-67.1
			v-24.5h67.3l29.4,29.4V3080.9z M502.6,3083H556v-36.4h-53.4V3083z"/>
		<path fill="#FFFFFF" d="M654.2,3069v18.1h64.4l27.4,27.4v18.1l-27.4,27.1h-72.9l-27.4-27.1v-12.2l24.5-24.5l-11.7-11.7v-9.6
			l12.2-12.2l-21-20.7v-38.8l27.4-27.4h62.1l14.3,14.3l14.3-14.3h16.9v24.5h-17.2v41.7l-27.4,27.4H654.2z M717.5,3106.3h-70.6v32.1
			h70.6V3106.3z M651,2997.8v48.7h60.6v-48.7H651z"/>
		<path fill="#FFFFFF" d="M903.4,3080.9h20.7v24.5h-28.9l-13.7-13.7l-14,13.7h-46.9l-29.7-29.4v-76.1h-20.7v-24.5h51.6v105.5h50.7
			v-81h-20.7v-24.5h51.6V3080.9z"/>
		<path fill="#FFFFFF" d="M1055.9,3048.6h-83.7v32.4h75.2v24.5H972l-29.4-29.4v-71.1l29.4-29.4h54.5l29.4,29.4V3048.6z M1026.5,2999
			h-54.2v31.5h54.2V2999z"/>
	</g>
</g>
<rect x="1235.2" y="2371.8" fill="#00C7F9" width="724.8" height="909.9"/>
<g>
	<path d="M1706,2719.4h64.7v142.2l-21.8,287.8h-221.7v-99.2l-102.8-90.1V2737h54.9v-212.5l20.4-20.4h54.2l21.1,20.4v166.1h65.5v14.1
		h65.5V2719.4z M1553.3,3123.4H1725l18.3-243.5h-42.9l-10.6-10.6l-3.5,3.5h-52.8l-9.1-8.4l-3.5,2.8H1568l-19-19.7v-311.8l-21.8-21.1
		l-21.8,20.4v214.6l21.8,69.7l-13.4,67.6l101.3,50.7v30.3l-124.6-62.6l-4.2-9.1l14.8-73.9l-19-59.1h-32.4v185.8l103.5,90.1V3123.4z
		 M1575.1,2714.5v121.8l19.7,19l19-19v-121.8H1575.1z M1640.5,2727.9v114.7l19,18.3l19.7-19.7v-113.3H1640.5z M1706,2746.2v101.3
		l20.4,20.4l18.3-17.6v-104.2H1706z"/>
</g>
</svg>
